<svg width="719" height="950" viewBox="0 0 719 950" fill="none" xmlns="http://www.w3.org/2000/svg">
<rect width="719" height="950" fill="url(#paint0_linear_111_3418)"/>
<g opacity="0.4">
<path opacity="0.504511" fill-rule="evenodd" clip-rule="evenodd" d="M664.084 800.639C673.286 856.783 450.111 893.404 258.018 867.847C65.9259 842.29 -22.197 742.489 69.4663 689.311C161.13 636.133 654.882 744.496 664.084 800.639Z" fill="#F2F2F2"/>
<path fill-rule="evenodd" clip-rule="evenodd" d="M392.75 541.194C387.827 539.203 381.265 541.512 384.002 546.775C386.935 552.411 397.776 552.481 403.899 552.369C403.286 552.343 401.313 547.175 400.637 546.394C398.645 544.09 395.776 542.42 392.75 541.194ZM449.467 642.24C450.709 643.106 449.568 642.322 449.467 642.24V642.24ZM388.008 566.686C385.127 568.482 384.99 571.653 387.343 573.799C390.145 576.354 395.261 576.261 399.08 576.012C400.808 575.9 410.033 575.297 407.846 574.066C408.014 574.118 408.366 574.243 408.742 574.414C408.944 575.017 409.156 575.618 409.378 576.216C409.323 576.242 409.277 576.27 409.219 576.295C409.282 576.273 409.326 576.249 409.381 576.226C411.6 582.204 414.757 587.896 418.892 593.221C417.345 592.724 415.743 592.348 414.118 592.181C409.305 591.684 399.181 594.735 404.565 599.961C409.726 604.971 417.762 599.596 423.62 598.855C429.302 605.323 435.567 611.521 442.132 617.513C441.73 617.615 441.377 617.829 441.174 618.163C438.541 617.073 435.796 615.514 433.358 615.092C429.841 614.483 422.628 614.115 419.97 616.683C416.7 619.84 420.205 622.405 424.068 623.011C429.67 623.889 437.003 621.657 442.393 620.148C443.009 620.237 443.683 620.09 444.085 619.688C444.204 619.656 444.323 619.625 444.439 619.594C451.087 625.557 457.99 631.322 464.851 636.961C464.778 636.958 464.705 636.954 464.629 636.951C462.839 635.994 460.92 635.208 458.839 634.797C454.025 633.84 448.362 633.835 444.455 636.676C440.564 639.504 439.186 644.451 443.212 647.627C451.269 653.985 463.141 639.489 467.205 638.884C474.177 644.554 481.55 649.852 489.038 655.043C488.188 654.832 487.316 654.677 486.414 654.607C479.071 654.034 461.836 661.376 470.847 668.6C478.7 674.895 487.79 662.779 494.118 658.541C501.175 663.38 508.27 668.185 515.165 673.177C511.405 672.363 507.77 672.243 503.738 673.236C499.566 674.266 492.835 676.835 495.472 681.429C498.154 686.101 506.238 683.975 510.448 682.492C512.745 681.683 517.349 678.953 521.391 677.803C532.395 686.276 541.926 695.608 549.141 706.602C553.646 713.466 557.064 720.8 559.471 728.338C561.006 733.149 564.032 741.229 563.427 747.491C566.314 734.957 561.093 719.903 555.469 708.7C550.297 698.398 542.557 689.354 533.492 681.214C535.767 675.633 554.915 667.584 543.468 662.399C537.389 659.657 531.163 664.206 529.835 669.024C528.922 672.335 530.312 676.495 531.788 679.708C528.936 677.226 525.972 674.825 522.917 672.503C518.695 669.293 514.372 666.177 510.008 663.101C517.199 657.59 524.006 641.836 514.363 639.26C500.124 635.466 506.98 656.955 507.973 660.982C508.255 660.996 508.475 660.926 508.637 660.777C508.557 661.146 508.464 661.54 508.351 661.938C499.998 656.08 491.521 650.337 483.323 644.339C484.062 643.894 485.236 642.192 486.159 641.287C488.241 639.245 490.234 637.113 491.69 634.725C493.991 630.951 496.209 624.931 490.111 622.712C483.48 620.293 480.328 627.101 480.282 631.163C480.251 633.972 481.189 636.64 481.677 639.393C481.83 640.252 481.242 644.123 482.676 642.458C482.608 643.072 482.599 643.516 482.632 643.831C481.16 642.749 479.7 641.655 478.249 640.553C478.316 640.414 478.366 640.262 478.377 640.087C478.455 638.876 476.961 638.409 475.914 638.764C473.999 637.28 472.103 635.777 470.24 634.244C466.293 630.997 462.289 627.657 458.312 624.246C459.175 623.642 458.832 622.805 459.639 622.163C460.444 621.522 462.031 621.168 462.978 620.574C465.361 619.077 467.336 616.896 468.765 614.75C471.124 611.203 474.173 603.764 467.281 602.074C460.178 600.329 456.573 607.49 456.116 611.967C456.027 612.835 456.824 620.65 457.433 623.488C450.075 617.149 442.838 610.572 436.281 603.88C438.269 603.865 443.906 600.543 445.045 599.637C447.825 597.425 452.245 592.54 447.371 589.954C443.037 587.661 437.695 590.983 435.841 594.211C435.537 594.742 434.463 599.689 434.379 601.909C431.665 599.071 429.076 596.217 426.668 593.353C425.062 591.45 423.561 589.496 422.156 587.5C422.495 587.344 422.813 587.071 423.113 586.732C430.341 585.732 439.557 576.533 431.066 573.333C427.024 571.811 422.64 574.953 420.66 577.524C420.254 578.051 419.597 580.696 419.063 582.782C415.022 576.171 411.935 569.172 409.585 561.996C410.214 561.869 410.747 561.477 410.818 560.802C414.327 559.171 417.098 557.812 419.548 554.674C421.07 552.725 423.811 548.272 419.339 547.19C413.519 545.783 409.864 553.033 409.388 556.603C409.332 557.018 409.334 558.223 409.353 559.328C409.151 559.306 408.947 559.308 408.747 559.337C407.41 554.894 406.343 550.393 405.495 545.884C408.671 545.051 409.221 531.445 407.106 529.508C402.379 525.17 399.044 531.436 399.296 534.748C399.594 538.653 401.764 542.205 404.347 545.358C404.624 545.691 404.545 545.675 404.617 545.21C404.657 545.44 404.751 545.61 404.891 545.732C404.757 547.788 404.498 549.892 404.622 551.711C404.98 556.92 405.724 562.159 406.804 567.301C407.067 568.551 407.368 569.792 407.705 571.021C405.152 569.247 401.71 567.671 400.363 567.178C396.867 565.9 391.48 564.521 388.008 566.686ZM563.837 747.508C563.674 749.325 563.273 750.988 562.522 752.359C563.085 750.798 563.517 749.175 563.837 747.508Z" fill="#F2F2F2"/>
<path opacity="0.2" fill-rule="evenodd" clip-rule="evenodd" d="M210.51 431.998C214.026 430.576 218.713 432.225 216.758 435.984C214.663 440.01 206.919 440.06 202.546 439.98C202.983 439.961 204.393 436.269 204.876 435.712C206.299 434.066 208.348 432.873 210.51 431.998ZM170.024 505.348C168.782 506.214 169.923 505.429 170.024 505.348V505.348ZM214.596 450.688C216.699 451.986 216.798 454.279 215.079 455.832C213.031 457.68 209.296 457.614 206.507 457.436C205.246 457.355 198.511 456.922 200.108 456.031C199.985 456.068 199.729 456.159 199.454 456.283C199.306 456.719 199.151 457.154 198.989 457.586C199.028 457.605 199.062 457.625 199.105 457.643C199.059 457.627 199.026 457.61 198.986 457.593C197.364 461.917 195.056 466.033 192.034 469.885C193.164 469.525 194.334 469.253 195.521 469.131C199.035 468.771 206.425 470.974 202.492 474.754C198.721 478.379 192.857 474.494 188.58 473.96C184.428 478.639 179.851 483.123 175.055 487.457C175.348 487.531 175.606 487.686 175.754 487.927C177.677 487.138 179.682 486.01 181.462 485.704C184.03 485.263 189.297 484.994 191.237 486.85C193.623 489.133 191.063 490.988 188.242 491.427C184.151 492.064 178.798 490.452 174.863 489.363C174.413 489.428 173.922 489.322 173.628 489.031C173.541 489.008 173.454 488.985 173.37 488.963C168.513 493.277 163.47 497.448 158.458 501.527C158.511 501.525 158.564 501.522 158.62 501.52C159.927 500.827 161.329 500.259 162.849 499.96C166.364 499.267 170.499 499.262 173.35 501.315C176.189 503.359 177.194 506.936 174.253 509.234C168.367 513.833 159.706 503.355 156.738 502.918C151.645 507.021 146.26 510.854 140.79 514.61C141.411 514.457 142.048 514.344 142.706 514.294C148.068 513.877 160.649 519.181 154.065 524.407C148.329 528.962 141.698 520.203 137.079 517.141C131.925 520.642 126.742 524.118 121.705 527.73C124.451 527.14 127.105 527.052 130.049 527.77C133.094 528.513 138.008 530.369 136.08 533.691C134.12 537.07 128.219 535.536 125.145 534.464C123.469 533.88 120.108 531.907 117.157 531.077C109.119 537.207 102.156 543.958 96.8828 551.91C93.5906 556.875 91.0914 562.179 89.3311 567.63C88.2076 571.109 85.9944 576.953 86.4339 581.481C84.3313 572.418 88.1503 561.531 92.2621 553.429C96.0427 545.978 101.698 539.436 108.321 533.547C106.662 529.512 92.6848 523.698 101.045 519.945C105.485 517.961 110.028 521.248 110.996 524.732C111.661 527.125 110.644 530.134 109.565 532.458C111.649 530.662 113.814 528.925 116.046 527.245C119.13 524.923 122.288 522.668 125.476 520.442C120.227 516.46 115.265 505.07 122.306 503.205C132.705 500.457 127.689 515.997 126.962 518.91C126.756 518.92 126.595 518.87 126.477 518.762C126.536 519.029 126.603 519.314 126.685 519.601C132.787 515.363 138.979 511.207 144.967 506.868C144.428 506.546 143.572 505.316 142.898 504.662C141.379 503.186 139.925 501.645 138.863 499.918C137.185 497.19 135.568 492.838 140.021 491.231C144.864 489.48 147.162 494.402 147.194 497.339C147.215 499.37 146.529 501.3 146.171 503.291C146.06 503.912 146.487 506.711 145.441 505.507C145.49 505.951 145.497 506.273 145.472 506.501C146.547 505.718 147.614 504.926 148.674 504.129C148.625 504.028 148.589 503.919 148.581 503.791C148.524 502.916 149.615 502.578 150.38 502.834C151.779 501.761 153.164 500.673 154.524 499.564C157.408 497.215 160.333 494.799 163.238 492.331C162.608 491.894 162.859 491.289 162.27 490.825C161.683 490.362 160.524 490.107 159.833 489.677C158.094 488.595 156.652 487.019 155.61 485.467C153.889 482.904 151.667 477.526 156.699 476.301C161.886 475.037 164.516 480.214 164.847 483.452C164.911 484.079 164.327 489.73 163.88 491.783C169.256 487.196 174.543 482.438 179.333 477.598C177.881 477.588 173.768 475.187 172.936 474.532C170.907 472.934 167.682 469.403 171.242 467.532C174.408 465.872 178.307 468.272 179.658 470.606C179.881 470.99 180.663 474.567 180.723 476.172C182.706 474.119 184.597 472.055 186.357 469.983C187.53 468.606 188.627 467.193 189.653 465.749C189.407 465.636 189.175 465.439 188.955 465.194C183.678 464.473 176.954 457.825 183.154 455.508C186.106 454.406 189.306 456.676 190.75 458.535C191.046 458.916 191.525 460.828 191.914 462.337C194.867 457.555 197.125 452.493 198.844 447.304C198.384 447.212 197.995 446.928 197.945 446.441C195.383 445.262 193.36 444.28 191.573 442.012C190.463 440.603 188.463 437.384 191.729 436.601C195.979 435.581 198.644 440.822 198.99 443.404C199.031 443.704 199.029 444.576 199.014 445.374C199.162 445.358 199.311 445.36 199.457 445.381C200.435 442.167 201.216 438.912 201.837 435.652C199.519 435.05 199.124 425.212 200.669 423.811C204.122 420.673 206.555 425.203 206.369 427.598C206.149 430.421 204.564 432.99 202.676 435.271C202.473 435.512 202.531 435.501 202.479 435.164C202.45 435.331 202.381 435.453 202.279 435.542C202.375 437.028 202.564 438.55 202.472 439.865C202.209 443.632 201.663 447.42 200.872 451.139C200.68 452.043 200.459 452.94 200.212 453.829C202.077 452.546 204.591 451.405 205.575 451.048C208.128 450.123 212.062 449.124 214.596 450.688ZM86.0163 581.123C86.1395 582.333 86.5055 583.438 87.226 584.343C86.6971 583.308 86.3004 582.231 86.0163 581.123Z" fill="#C1DEE2"/>
<g opacity="0.7">
<path fill-rule="evenodd" clip-rule="evenodd" d="M488.5 664.22C502.172 663.642 519.079 670.151 520.538 682.271C521.598 691.078 521.269 699.859 522.909 708.653C524.22 715.681 526.993 722.427 530.775 728.829C534.412 734.985 541.956 740.225 543.918 746.802C545.168 750.992 544.468 756.887 542.744 760.985C540.647 765.969 541.761 765.575 545.94 769.757C554.129 777.952 561.503 786.355 566.717 796.142C574.228 810.239 579.152 826.717 576.364 842.149C576.01 844.108 575.589 851.14 572.281 851.632C568.586 852.181 570.314 848.16 570.511 846.86C571.768 838.571 572.885 831.325 571.369 822.906C565.517 790.424 536.946 769.022 518.343 741.453C517.32 740.031 515.161 736.646 513.66 734.413C511.29 730.887 508.908 724.177 505.7 721.562C499.657 716.637 505.212 726.539 506.39 728.43C507.878 730.821 509.516 733.362 511.041 735.458C518.021 745.17 525.812 755.772 533.02 765.784C501.844 771.578 479.887 741.008 471.521 720.91C464.627 704.351 456.38 665.637 488.5 664.22Z" fill="#69A1AC"/>
<path fill-rule="evenodd" clip-rule="evenodd" d="M671.739 633.472C648.885 634.951 634.213 647.251 627.383 664.455C623.702 673.726 623.28 683.251 621.234 692.778C618.157 707.113 611.536 717.976 598.596 728.189C594.588 731.352 591.635 734.599 589.535 738.073C585.367 741.542 581.739 745.468 579.074 750.267C575.669 756.396 574.706 763.75 578.637 769.86C579.694 771.503 582.33 774.8 585.063 776.299C574.832 794.071 569.206 813.536 569.84 832.976C570.224 844.711 570.926 856.45 571.745 868.171C571.966 871.318 573.223 876.515 575.11 871.237C576.837 866.409 574.671 858.831 574.471 853.787C573.495 829.219 572.662 806.88 585.062 783.926C586.362 781.52 587.741 779.134 589.176 776.766C589.261 776.726 589.339 776.678 589.418 776.631C589.473 776.666 589.523 776.703 589.577 776.737C589.669 776.603 589.795 776.444 589.941 776.267C590.353 775.92 590.712 775.482 591.054 774.994C592.154 773.75 593.399 772.29 593.406 771.49C593.406 771.484 593.402 771.475 593.402 771.468C601.078 761.248 609.87 751.591 618.851 742.123C618.783 742.192 628.592 731.299 627.075 737.323C626.344 740.226 619.129 745.754 616.216 748.829C609.77 755.67 602.2 764.338 595.91 772.719C595.064 773.116 593.868 775.064 593.003 776.515C592.526 777.25 592.08 777.991 591.642 778.636C613.93 784.642 631.268 772.544 643.09 758.473C643.104 758.457 643.117 758.439 643.13 758.423C646.728 754.535 650.413 750.674 655.017 747.6C662.699 742.472 670.925 741.567 679.981 739.043C704.679 732.16 715.18 706.054 718.515 686.682C722.278 664.828 703.873 631.317 671.739 633.472Z" fill="#89C5CC"/>
<path fill-rule="evenodd" clip-rule="evenodd" d="M626.594 572.272C603.137 592.184 591.805 619.801 582.832 645.765C572.81 674.763 566.19 704.209 565.936 734.358C565.77 754.167 565.109 774.099 566.526 793.884C567.029 800.911 567.888 807.95 569.254 814.901C569.366 815.472 572.421 830.993 575.344 827.376C577.007 825.319 572.213 811.276 571.851 808.937C569.813 795.762 569.339 782.49 569.439 769.22C569.602 747.371 568.812 725.635 571.527 703.867C571.932 700.617 572.252 697.203 573.199 694.023C574.204 690.643 572.924 692.119 576.197 690.78C579.378 689.48 583.309 689.665 586.609 688.033C599.7 681.559 606.396 664.929 611.608 654.017C617.57 641.539 621.193 628.233 624.087 615.101C626.211 605.453 627.731 595.864 628.59 586.091C628.861 583.011 628.877 579.791 629.619 576.762C629.819 575.945 630.822 574.5 630.786 573.777C630.709 572.246 629.576 571.345 629.483 570.059C628.501 570.78 627.537 571.518 626.594 572.272Z" fill="#89C5CC"/>
<path fill-rule="evenodd" clip-rule="evenodd" d="M498.693 837.561C498.693 870.489 531.422 897.184 571.795 897.184C612.168 897.184 644.897 870.489 644.897 837.561" fill="#89C5CC"/>
<path fill-rule="evenodd" clip-rule="evenodd" d="M577.662 837.751H573.8C574.068 833.798 574.422 829.853 575.232 825.944C578.331 810.995 588.02 789.039 609.269 786.613C610.053 786.522 612.937 786.507 616.43 786.674C618.086 785.92 619.94 785.463 621.894 785.358C639.987 784.27 660.191 796.175 668.918 808.564C675.953 818.552 674.768 831.668 670.423 842.28C667.513 849.385 661.162 859.514 650.571 859.613C637.321 859.736 636.682 846.379 636.426 838.571C636.085 828.189 634.477 819.146 624.448 812.07C622.11 810.421 619.555 808.971 617.194 807.345C613.497 804.801 609.411 802.196 608.935 797.986C608.277 792.179 612.296 791.134 618.433 792.213C619.479 792.397 630.017 796.253 628.457 793.205C627.98 792.274 626.241 791.536 624.045 790.983C618.362 790.479 611.586 789.894 609.637 790.243C588.612 794.006 580.426 817.759 578.252 832.851C578.018 834.48 577.828 836.114 577.662 837.751Z" fill="#69A1AC"/>
</g>
<g opacity="0.5">
<path fill-rule="evenodd" clip-rule="evenodd" d="M178.47 555.326C182.678 550.432 190.488 538.003 196.41 536.254C200.225 535.128 199.113 546.779 199.16 549.001C199.344 557.596 198.318 566.137 197.051 574.66C194.768 590.032 187.304 603.721 177.067 616.804C171.799 623.536 165.621 630.349 157.063 634.549C153.124 636.484 148.384 636.808 144.494 638.474C139.963 640.414 142.43 638.846 140.389 642.697C137.553 648.043 136.646 654.94 135.334 660.645C129.31 686.832 114.727 825.263 117.255 851.9C117.48 854.261 113.443 854.826 113.242 851.944C112.171 836.661 121.438 730.828 126.114 696.218C130.789 661.607 135.521 631.031 140.265 619.057C146.021 604.53 156.416 587.06 165.069 573.513C169.088 567.219 173.469 561.142 178.47 555.326Z" fill="#69A1AC"/>
<path fill-rule="evenodd" clip-rule="evenodd" d="M209.708 725.075C220.659 718.518 232.511 730.893 222.603 737.451C217.125 741.076 211.398 739.787 208.174 736.766C206.081 738.846 204.122 741.022 202.24 742.86C196.505 748.459 191.085 754.193 185.905 760.06C175.144 772.248 165.922 785.125 156.28 797.767C146.765 810.243 137.325 822.784 128.701 835.576C121.394 846.415 111.656 859.165 109.154 871.047C112.95 845.847 127.351 821.626 144.502 799.41C161.512 777.377 181.033 753.314 207.372 735.926C204.691 732.711 204.617 728.122 209.708 725.075Z" fill="#C1DEE2"/>
<path fill-rule="evenodd" clip-rule="evenodd" d="M1.91586 663.616C8.04363 664.593 18.0563 675.899 23.1075 680.207C29.1104 685.326 34.5565 690.782 39.6901 696.499C50.7417 708.804 60.6255 721.887 69.03 735.53C82.7316 757.771 93.7083 780.603 101.675 804.822C106.551 819.647 109.708 835.013 111.58 850.272C111.933 853.15 115.632 875.336 110.302 875.934C105.508 876.473 106.989 859.088 106.757 856.723C104.143 830.043 96.3113 804.084 85.4174 778.938C83.0445 773.46 80.8401 766.75 77.0454 761.82C74.3126 758.27 77.0258 759.508 72.2233 758.164C68.0997 757.01 63.4014 757.292 59.1786 755.879C50.0052 752.81 42.6599 746.854 36.2213 740.862C23.7088 729.218 13.7932 716.621 8.62464 701.701C5.75748 693.428 3.12271 685.107 1.66057 676.579C1.28234 674.374 -2.03099 662.986 1.91586 663.616Z" fill="#69A1AC"/>
<path fill-rule="evenodd" clip-rule="evenodd" d="M26.0985 475.507C49.1806 508.156 68.1485 544.02 80.3962 580.345C87.8168 602.354 93.0063 624.939 98.1624 647.36C106.146 682.077 113.697 716.791 115.845 752.124C118.006 787.662 122.28 828.651 108.012 862.88C115.139 828.128 108.354 791.138 107.152 756.171C106.578 739.478 104.914 722.948 102.732 706.353C100.614 690.255 97.1544 674.233 93.9325 658.262C92.363 650.483 90.7147 642.716 89.0366 634.954C88.5356 632.638 88.3239 625.766 86.5227 624.183C84.7098 622.591 75.4602 621.942 72.5562 620.773C66.7086 618.419 61.2082 615.076 56.3401 611.544C47.0081 604.773 38.8896 595.925 32.4819 587.203C17.6561 567.022 11.7288 542.394 12.0284 519.022C12.0859 514.484 21.0335 465.619 17.44 464.946C17.6564 464.74 17.861 464.526 18.054 464.304C20.7746 468.019 23.4443 471.76 26.0985 475.507Z" fill="#89C5CC"/>
<path fill-rule="evenodd" clip-rule="evenodd" d="M275.23 593.259C275.586 592.84 277.904 589.926 276.737 590.112C279.114 589.733 273.468 593.326 279.39 591.121C276.578 593.287 278.201 596.101 278.238 599.015C278.3 603.748 277.329 608.442 276.236 613.073C274.509 620.393 271.937 627.51 268.203 634.319C260.064 649.156 246.245 663.44 229.839 672.716C221.74 677.296 213.802 678.856 204.565 680.964C198.731 682.296 198.268 684.758 195.171 689.376C188.723 698.994 182.39 708.577 176.704 718.52C169.914 730.392 163.323 742.277 157.106 754.359C136.16 795.054 119.112 837.215 110.159 880.848C109.94 855.135 117.233 828.654 126.432 804.145C133.133 786.289 141.857 769.076 151.161 752.038C153.416 747.91 156.833 742.6 157.79 738.043C158.461 734.85 156.411 731.779 155.472 728.415C151.814 715.317 152.076 700.642 155.289 687.473C158.831 672.952 169.076 666.213 186.406 664.156C192.743 663.403 200.799 663.679 206.611 661.475C212.942 659.075 215.554 651.185 219.155 646.121C228.825 632.517 240.315 619.47 253.509 608.008C257.162 604.833 261.091 601.905 265.259 599.191C267.887 597.478 273.439 595.369 275.23 593.259Z" fill="#89C5CC"/>
<path fill-rule="evenodd" clip-rule="evenodd" d="M80.9031 853.078H142.406C145.171 853.078 147.413 854.906 147.413 857.162C147.413 857.361 147.395 857.56 147.359 857.758L142.606 884.048C141.157 892.062 132.725 898 122.792 898H100.517C90.5844 898 82.1525 892.062 80.7033 884.048L75.9497 857.758C75.5463 855.526 77.437 853.451 80.1726 853.122C80.4145 853.093 80.6587 853.078 80.9031 853.078Z" fill="#C1DEE2"/>
</g>
<path fill-rule="evenodd" clip-rule="evenodd" d="M25.457 866.52C25.457 883.906 27.1393 898.001 49.7186 898.001C72.298 898.001 73.9803 883.906 73.9803 866.52" fill="#F2F2F2"/>
<path fill-rule="evenodd" clip-rule="evenodd" d="M56.4356 855.671C55.6079 856.838 54.87 858.029 54.2181 859.237C54.1951 856.748 54.3638 854.242 54.8245 851.7C55.6121 847.348 56.8149 843.017 57.9452 838.694C58.7575 835.587 58.7062 830.007 61.7891 827.531C62.6344 826.996 62.8379 828.045 62.8379 828.501C62.8486 828.597 62.8356 826.642 62.015 826.982C57.1376 829.037 55.5572 835.497 53.9957 838.732C51.7175 843.453 49.779 848.279 48.9808 853.191C48.7791 854.432 48.6694 855.672 48.644 856.911C48.4782 856.58 48.3225 856.246 48.1502 855.916C45.3352 850.531 41.5361 845.276 36.7979 840.43C35.6317 839.238 20.967 827.473 19.819 829.274C19.9323 829.535 20.1694 829.752 20.531 829.925C20.5523 829.944 20.5529 829.933 20.5405 829.904C21.4017 831.039 23.8505 832.792 24.6132 833.786C26.5328 836.288 28.0247 838.943 29.5408 841.548C32.744 847.052 35.7154 852.612 38.596 858.183C39.2667 859.481 39.9658 860.772 40.679 862.058C33.3269 853.409 23.519 845.557 10.0176 841.062C14.6289 842.975 17.6523 846.575 20.7664 849.331C24.5224 852.656 28.4784 855.891 32.2414 859.212C36.6799 863.13 41.9025 867.256 46.1717 871.591C50.307 878.672 54.3255 885.761 56.8061 893.204C55.7896 890.633 56.7264 887.078 56.5524 884.379C56.4144 882.231 56.1064 880.1 55.6846 877.973C56.2061 878.933 56.6556 879.893 56.8591 880.786C56.6733 879.288 56.4592 877.8 56.2291 876.319C56.8196 874.933 57.3995 873.64 57.7912 872.575C59.7987 867.109 62.189 861.738 65.4442 856.503C68.4563 851.66 71.9114 846.879 75.6762 842.244C77.4324 840.083 79.2128 837.93 80.9819 835.773C82.1399 834.361 83.2425 832.101 84.8547 830.748C74.4333 838.519 63.0474 846.346 56.4356 855.671Z" fill="#F2F2F2"/>
<path fill-rule="evenodd" clip-rule="evenodd" d="M688.592 500.916C685.604 492.789 678.59 486.427 671.309 480.599C657.134 469.251 649.51 462.236 644.458 445.637C641.488 435.875 638.464 425.53 629.04 418.448C622.179 413.29 610.37 408.957 601.194 412.65C587.077 419.522 583.287 433.625 584.71 446.253C586.475 461.905 595.439 471.556 612.659 477.321C622.363 480.568 628.813 484.852 634.08 492.317C638.293 498.286 640.75 505.761 646.044 511.172C653.96 519.262 663.865 522.858 676.074 521.514C664.639 504.353 651.277 487.03 635.161 472.581C633.653 471.129 624.755 465.569 626.55 463.093C628.527 460.367 637.661 470.607 637.596 470.545C642.28 474.93 646.613 479.589 650.869 484.293C650.858 484.298 650.846 484.3 650.834 484.305C655.215 489.132 659.562 494.031 663.826 498.99C665.55 501.088 667.229 503.213 668.835 505.391C671.193 508.587 674.935 517.658 678.794 519.623C679.619 520.043 680.382 520.278 681.096 520.375C683.728 523.89 686.29 527.434 688.726 531.02C695.088 540.385 700.548 550.273 703.055 560.846C703.786 563.932 703.269 575.475 705.851 577.703C710.573 581.778 709.19 573.931 708.908 571.562C706.562 551.949 697.929 535.24 685.395 518.751C689.245 514.649 689.801 504.209 688.592 500.916Z" fill="#F2F2F2"/>
<path fill-rule="evenodd" clip-rule="evenodd" d="M526.859 510.393C531.838 505.609 543.804 504.797 551.123 505.117C560.18 505.513 569.482 507.312 578.098 509.486C592.291 513.067 606.083 519.602 618.583 525.928C620.089 526.69 638.649 535.793 637.006 537.391C635.378 538.974 617.159 528.16 613.099 526.297C604.434 522.319 596.488 517.614 586.937 514.987C577.048 512.267 566.589 511.189 556.19 511.264C554.855 511.273 550.502 510.514 550.408 512.125C550.316 513.7 557.519 512.878 558.79 512.888C564.036 512.927 569.314 513.33 574.486 514.071C584.176 515.46 593.286 518.259 601.586 522.552C599.27 526.943 593.719 528.968 587.895 527.869C582.862 526.919 577.956 524.576 573.027 523.899C569.633 523.432 566.235 523.71 562.943 524.49C554.261 526.547 549.254 530.763 539.708 527.831C532.225 525.532 519.71 517.272 526.859 510.393Z" fill="#F2F2F2"/>
<path fill-rule="evenodd" clip-rule="evenodd" d="M532.494 465.12H534.849C534.684 462.683 534.469 460.249 533.964 457.839C532.071 448.804 526.151 435.534 513.169 434.067C512.69 434.012 510.928 434.003 508.794 434.104C507.782 433.648 506.649 433.372 505.455 433.309C494.402 432.651 482.058 439.847 476.726 447.334C472.428 453.371 473.152 461.299 475.807 467.712C477.585 472.006 481.465 478.128 487.935 478.188C496.03 478.263 496.421 470.19 496.577 465.47C496.785 459.196 497.768 453.73 503.895 449.453C505.324 448.457 506.885 447.58 508.327 446.598C510.586 445.06 513.082 443.485 513.373 440.941C513.775 437.431 511.319 436.8 507.57 437.452C506.931 437.563 500.493 439.894 501.446 438.051C501.737 437.489 502.8 437.043 504.142 436.708C507.613 436.404 511.753 436.05 512.944 436.262C525.789 438.535 530.79 452.892 532.118 462.013C532.269 463.046 532.389 464.082 532.494 465.12Z" fill="#F2F2F2"/>
</g>
<defs>
<linearGradient id="paint0_linear_111_3418" x1="359.5" y1="565.772" x2="359.5" y2="950" gradientUnits="userSpaceOnUse">
<stop stop-color="#DEC9FF"/>
<stop offset="1" stop-color="#FFE9CA" stop-opacity="0"/>
</linearGradient>
</defs>
</svg>
