<svg width="719" height="498" viewBox="0 0 719 498" fill="none" xmlns="http://www.w3.org/2000/svg">
<g opacity="0.4">
<path opacity="0.504511" fill-rule="evenodd" clip-rule="evenodd" d="M664.084 400.639C673.286 456.783 450.111 493.404 258.018 467.847C65.9259 442.29 -22.197 342.489 69.4663 289.311C161.13 236.133 654.882 344.496 664.084 400.639Z" fill="#F2F2F2"/>
<path fill-rule="evenodd" clip-rule="evenodd" d="M392.75 141.194C387.827 139.203 381.265 141.512 384.002 146.775C386.935 152.411 397.776 152.481 403.899 152.369C403.286 152.343 401.313 147.175 400.637 146.394C398.645 144.09 395.776 142.42 392.75 141.194ZM449.467 242.24C450.709 243.106 449.568 242.322 449.467 242.24V242.24ZM388.008 166.686C385.127 168.482 384.99 171.653 387.343 173.799C390.145 176.354 395.261 176.261 399.08 176.012C400.808 175.9 410.033 175.297 407.846 174.066C408.014 174.118 408.366 174.243 408.742 174.414C408.944 175.017 409.156 175.618 409.378 176.216C409.323 176.242 409.277 176.27 409.219 176.295C409.282 176.273 409.326 176.249 409.381 176.226C411.6 182.204 414.757 187.896 418.892 193.221C417.345 192.724 415.743 192.348 414.118 192.181C409.305 191.684 399.181 194.735 404.565 199.961C409.726 204.971 417.762 199.596 423.62 198.855C429.302 205.323 435.567 211.521 442.132 217.513C441.73 217.615 441.377 217.829 441.174 218.163C438.541 217.073 435.796 215.514 433.358 215.092C429.841 214.483 422.628 214.115 419.97 216.683C416.7 219.84 420.205 222.405 424.068 223.011C429.67 223.889 437.003 221.657 442.393 220.148C443.009 220.237 443.683 220.09 444.085 219.688C444.204 219.656 444.323 219.625 444.439 219.594C451.087 225.557 457.99 231.322 464.851 236.961C464.778 236.958 464.705 236.954 464.629 236.951C462.839 235.994 460.92 235.208 458.839 234.797C454.025 233.84 448.362 233.835 444.455 236.676C440.564 239.504 439.186 244.451 443.212 247.627C451.269 253.985 463.141 239.489 467.205 238.884C474.177 244.554 481.55 249.852 489.038 255.043C488.188 254.832 487.316 254.677 486.414 254.607C479.071 254.034 461.836 261.376 470.847 268.6C478.7 274.895 487.79 262.779 494.118 258.541C501.175 263.38 508.27 268.185 515.165 273.177C511.405 272.363 507.77 272.243 503.738 273.236C499.566 274.266 492.835 276.835 495.472 281.429C498.154 286.101 506.238 283.975 510.448 282.492C512.745 281.683 517.349 278.953 521.391 277.803C532.395 286.276 541.926 295.608 549.141 306.602C553.646 313.466 557.064 320.8 559.471 328.338C561.006 333.149 564.032 341.229 563.427 347.491C566.314 334.957 561.093 319.903 555.469 308.7C550.297 298.398 542.557 289.354 533.492 281.214C535.767 275.633 554.915 267.584 543.468 262.399C537.389 259.657 531.163 264.206 529.835 269.024C528.922 272.335 530.312 276.495 531.788 279.708C528.936 277.226 525.972 274.825 522.917 272.503C518.695 269.293 514.372 266.177 510.008 263.101C517.199 257.59 524.006 241.836 514.363 239.26C500.124 235.466 506.98 256.955 507.973 260.982C508.255 260.996 508.475 260.926 508.637 260.777C508.557 261.146 508.464 261.54 508.351 261.938C499.998 256.08 491.521 250.337 483.323 244.339C484.062 243.894 485.236 242.192 486.159 241.287C488.241 239.245 490.234 237.113 491.69 234.725C493.991 230.951 496.209 224.931 490.111 222.712C483.48 220.293 480.328 227.101 480.282 231.163C480.251 233.972 481.189 236.64 481.677 239.393C481.83 240.252 481.242 244.123 482.676 242.458C482.608 243.072 482.599 243.516 482.632 243.831C481.16 242.749 479.7 241.655 478.249 240.553C478.316 240.414 478.366 240.262 478.377 240.087C478.455 238.876 476.961 238.409 475.914 238.764C473.999 237.28 472.103 235.777 470.24 234.244C466.293 230.997 462.289 227.657 458.312 224.246C459.175 223.642 458.832 222.805 459.639 222.163C460.444 221.522 462.031 221.168 462.978 220.574C465.361 219.077 467.336 216.896 468.765 214.75C471.124 211.203 474.173 203.764 467.281 202.074C460.178 200.329 456.573 207.49 456.116 211.967C456.027 212.835 456.824 220.65 457.433 223.488C450.075 217.149 442.838 210.572 436.281 203.88C438.269 203.865 443.906 200.543 445.045 199.637C447.825 197.425 452.245 192.54 447.371 189.954C443.037 187.661 437.695 190.983 435.841 194.211C435.537 194.742 434.463 199.689 434.379 201.909C431.665 199.071 429.076 196.217 426.668 193.353C425.062 191.45 423.561 189.496 422.156 187.5C422.495 187.344 422.813 187.071 423.113 186.732C430.341 185.732 439.557 176.533 431.066 173.333C427.024 171.811 422.64 174.953 420.66 177.524C420.254 178.051 419.597 180.696 419.063 182.782C415.022 176.171 411.935 169.172 409.585 161.996C410.214 161.869 410.747 161.477 410.818 160.802C414.327 159.171 417.098 157.812 419.548 154.674C421.07 152.725 423.811 148.272 419.339 147.19C413.519 145.783 409.864 153.033 409.388 156.603C409.332 157.018 409.334 158.223 409.353 159.328C409.151 159.306 408.947 159.308 408.747 159.337C407.41 154.894 406.343 150.393 405.495 145.884C408.671 145.051 409.221 131.445 407.106 129.508C402.379 125.17 399.044 131.436 399.296 134.748C399.594 138.653 401.764 142.205 404.347 145.358C404.624 145.691 404.545 145.675 404.617 145.21C404.657 145.44 404.751 145.61 404.891 145.732C404.757 147.788 404.498 149.892 404.622 151.711C404.98 156.92 405.724 162.159 406.804 167.301C407.067 168.551 407.368 169.792 407.705 171.021C405.152 169.247 401.71 167.671 400.363 167.178C396.867 165.9 391.48 164.521 388.008 166.686ZM563.837 347.508C563.674 349.325 563.273 350.988 562.522 352.359C563.085 350.798 563.517 349.175 563.837 347.508Z" fill="#F2F2F2"/>
<path opacity="0.2" fill-rule="evenodd" clip-rule="evenodd" d="M210.51 31.9976C214.026 30.5756 218.713 32.2248 216.758 35.9841C214.663 40.0098 206.919 40.0595 202.546 39.9797C202.983 39.961 204.393 36.2694 204.876 35.7116C206.299 34.066 208.348 32.8734 210.51 31.9976ZM170.024 105.348C168.782 106.214 169.923 105.429 170.024 105.348V105.348ZM214.596 50.6882C216.699 51.986 216.798 54.2789 215.079 55.8317C213.031 57.6802 209.296 57.6145 206.507 57.4356C205.246 57.3546 198.511 56.9217 200.108 56.0308C199.985 56.0683 199.729 56.1593 199.454 56.283C199.306 56.719 199.151 57.1535 198.989 57.5861C199.028 57.6048 199.062 57.6248 199.105 57.6434C199.059 57.6272 199.026 57.6097 198.986 57.5932C197.364 61.9165 195.056 66.0333 192.034 69.8851C193.164 69.5254 194.334 69.253 195.521 69.1314C199.035 68.771 206.425 70.9736 202.492 74.7542C198.721 78.3786 192.857 74.4943 188.58 73.9601C184.428 78.6388 179.851 83.1229 175.055 87.4573C175.348 87.5315 175.606 87.6862 175.754 87.9272C177.677 87.1383 179.682 86.0101 181.462 85.7041C184.03 85.2632 189.297 84.9944 191.237 86.8505C193.623 89.1327 191.063 90.9884 188.242 91.4275C184.151 92.0642 178.798 90.4523 174.863 89.3633C174.413 89.4278 173.922 89.3216 173.628 89.0309C173.541 89.0079 173.454 88.9853 173.37 88.9633C168.513 93.2766 163.47 97.4476 158.458 101.527C158.511 101.525 158.564 101.522 158.62 101.52C159.927 100.827 161.329 100.259 162.849 99.9604C166.364 99.267 170.499 99.2619 173.35 101.315C176.189 103.359 177.194 106.936 174.253 109.234C168.367 113.833 159.706 103.355 156.738 102.918C151.645 107.021 146.26 110.854 140.79 114.61C141.411 114.457 142.048 114.344 142.706 114.294C148.068 113.877 160.649 119.181 154.065 124.407C148.329 128.962 141.698 120.203 137.079 117.141C131.925 120.642 126.742 124.118 121.705 127.73C124.451 127.14 127.105 127.052 130.049 127.77C133.094 128.513 138.008 130.369 136.08 133.691C134.12 137.07 128.219 135.536 125.145 134.464C123.469 133.88 120.108 131.907 117.157 131.077C109.119 137.207 102.156 143.958 96.8828 151.91C93.5906 156.875 91.0914 162.179 89.3311 167.63C88.2076 171.109 85.9944 176.953 86.4339 181.481C84.3313 172.418 88.1503 161.531 92.2621 153.429C96.0427 145.978 101.698 139.436 108.321 133.547C106.662 129.512 92.6848 123.698 101.045 119.945C105.485 117.961 110.028 121.248 110.996 124.732C111.661 127.125 110.644 130.134 109.565 132.458C111.649 130.662 113.814 128.925 116.046 127.245C119.13 124.923 122.288 122.668 125.476 120.442C120.227 116.46 115.265 105.07 122.306 103.205C132.705 100.457 127.689 115.997 126.962 118.91C126.756 118.92 126.595 118.87 126.477 118.762C126.536 119.029 126.603 119.314 126.685 119.601C132.787 115.363 138.979 111.207 144.967 106.868C144.428 106.546 143.572 105.316 142.898 104.662C141.379 103.186 139.925 101.645 138.863 99.9183C137.185 97.1902 135.568 92.8381 140.021 91.2312C144.864 89.4804 147.162 94.4024 147.194 97.3392C147.215 99.3703 146.529 101.3 146.171 103.291C146.06 103.912 146.487 106.711 145.441 105.507C145.49 105.951 145.497 106.273 145.472 106.501C146.547 105.718 147.614 104.926 148.674 104.129C148.625 104.028 148.589 103.919 148.581 103.791C148.524 102.916 149.615 102.578 150.38 102.834C151.779 101.761 153.164 100.673 154.524 99.5644C157.408 97.2152 160.333 94.7989 163.238 92.3312C162.608 91.8944 162.859 91.2889 162.27 90.8251C161.683 90.3623 160.524 90.1067 159.833 89.6769C158.094 88.5953 156.652 87.0189 155.61 85.4674C153.889 82.9038 151.667 77.5255 156.699 76.3012C161.886 75.0374 164.516 80.2144 164.847 83.4517C164.911 84.0788 164.327 89.7303 163.88 91.7825C169.256 87.1965 174.543 82.4385 179.333 77.5979C177.881 77.5877 173.768 75.1872 172.936 74.532C170.907 72.9341 167.682 69.4027 171.242 67.5317C174.408 65.8723 178.307 68.2723 179.658 70.6058C179.881 70.9901 180.663 74.567 180.723 76.1719C182.706 74.1193 184.597 72.0545 186.357 69.9832C187.53 68.6062 188.627 67.1927 189.653 65.7493C189.407 65.6364 189.175 65.4394 188.955 65.1944C183.678 64.4731 176.954 57.8246 183.154 55.5079C186.106 54.4063 189.306 56.6764 190.75 58.5355C191.046 58.9158 191.525 60.8284 191.914 62.337C194.867 57.5554 197.125 52.4935 198.844 47.3037C198.384 47.2117 197.995 46.9284 197.945 46.4408C195.383 45.262 193.36 44.2803 191.573 42.0121C190.463 40.6033 188.463 37.3843 191.729 36.6007C195.979 35.5812 198.644 40.8223 198.99 43.4042C199.031 43.7039 199.029 44.5756 199.014 45.3744C199.162 45.3581 199.311 45.3599 199.457 45.3807C200.435 42.1672 201.216 38.9124 201.837 35.6522C199.519 35.0502 199.124 25.2123 200.669 23.8108C204.122 20.6728 206.555 25.2028 206.369 27.5976C206.149 30.4213 204.564 32.9905 202.676 35.2708C202.473 35.5123 202.531 35.5005 202.479 35.1643C202.45 35.3305 202.381 35.4532 202.279 35.5421C202.375 37.0284 202.564 38.55 202.472 39.8653C202.209 43.6318 201.663 47.4205 200.872 51.1387C200.68 52.0431 200.459 52.94 200.212 53.8293C202.077 52.5457 204.591 51.405 205.575 51.0482C208.128 50.1231 212.062 49.1237 214.596 50.6882ZM86.0163 181.123C86.1395 182.333 86.5055 183.438 87.226 184.343C86.6971 183.308 86.3004 182.231 86.0163 181.123Z" fill="#C1DEE2"/>
<g opacity="0.7">
<path fill-rule="evenodd" clip-rule="evenodd" d="M488.5 264.22C502.172 263.642 519.079 270.151 520.538 282.271C521.598 291.078 521.269 299.859 522.909 308.653C524.22 315.681 526.993 322.427 530.775 328.829C534.412 334.985 541.956 340.225 543.918 346.802C545.168 350.992 544.468 356.887 542.744 360.985C540.647 365.969 541.761 365.575 545.94 369.757C554.129 377.952 561.503 386.355 566.717 396.142C574.228 410.239 579.152 426.717 576.364 442.149C576.01 444.108 575.589 451.14 572.281 451.632C568.586 452.181 570.314 448.16 570.511 446.86C571.768 438.571 572.885 431.325 571.369 422.906C565.517 390.424 536.946 369.022 518.343 341.453C517.32 340.031 515.161 336.646 513.66 334.413C511.29 330.887 508.908 324.177 505.7 321.562C499.657 316.637 505.212 326.539 506.39 328.43C507.878 330.821 509.516 333.362 511.041 335.458C518.021 345.17 525.812 355.772 533.02 365.784C501.844 371.578 479.887 341.008 471.521 320.91C464.627 304.351 456.38 265.637 488.5 264.22Z" fill="#69A1AC"/>
<path fill-rule="evenodd" clip-rule="evenodd" d="M671.739 233.472C648.885 234.951 634.213 247.251 627.383 264.455C623.702 273.726 623.28 283.251 621.234 292.778C618.157 307.113 611.536 317.976 598.596 328.189C594.588 331.352 591.635 334.599 589.535 338.073C585.367 341.542 581.739 345.468 579.074 350.267C575.669 356.396 574.706 363.75 578.637 369.86C579.694 371.503 582.33 374.8 585.063 376.299C574.832 394.071 569.206 413.536 569.84 432.976C570.224 444.711 570.926 456.45 571.745 468.171C571.966 471.318 573.223 476.515 575.11 471.237C576.837 466.409 574.671 458.831 574.471 453.787C573.495 429.219 572.662 406.88 585.062 383.926C586.362 381.52 587.741 379.134 589.176 376.766C589.261 376.726 589.339 376.678 589.418 376.631C589.473 376.666 589.523 376.703 589.577 376.737C589.669 376.603 589.795 376.444 589.941 376.267C590.353 375.92 590.712 375.482 591.054 374.994C592.154 373.75 593.399 372.29 593.406 371.49C593.406 371.484 593.402 371.475 593.402 371.468C601.078 361.248 609.87 351.591 618.851 342.123C618.783 342.192 628.592 331.299 627.075 337.323C626.344 340.226 619.129 345.754 616.216 348.829C609.77 355.67 602.2 364.338 595.91 372.719C595.064 373.116 593.868 375.064 593.003 376.515C592.526 377.25 592.08 377.991 591.642 378.636C613.93 384.642 631.268 372.544 643.09 358.473C643.104 358.457 643.117 358.439 643.13 358.423C646.728 354.535 650.413 350.674 655.017 347.6C662.699 342.472 670.925 341.567 679.981 339.043C704.679 332.16 715.18 306.054 718.515 286.682C722.278 264.828 703.873 231.317 671.739 233.472Z" fill="#89C5CC"/>
<path fill-rule="evenodd" clip-rule="evenodd" d="M626.594 172.272C603.137 192.184 591.805 219.801 582.832 245.765C572.81 274.763 566.19 304.209 565.936 334.358C565.77 354.167 565.109 374.099 566.526 393.884C567.029 400.911 567.888 407.95 569.254 414.901C569.366 415.472 572.421 430.993 575.344 427.376C577.007 425.319 572.213 411.276 571.851 408.937C569.813 395.762 569.339 382.49 569.439 369.22C569.602 347.371 568.812 325.635 571.527 303.867C571.932 300.617 572.252 297.203 573.199 294.023C574.204 290.643 572.924 292.119 576.197 290.78C579.378 289.48 583.309 289.665 586.609 288.033C599.7 281.559 606.396 264.929 611.608 254.017C617.57 241.539 621.193 228.233 624.087 215.101C626.211 205.453 627.731 195.864 628.59 186.091C628.861 183.011 628.877 179.791 629.619 176.762C629.819 175.945 630.822 174.5 630.786 173.777C630.709 172.246 629.576 171.345 629.483 170.059C628.501 170.78 627.537 171.518 626.594 172.272Z" fill="#89C5CC"/>
<path fill-rule="evenodd" clip-rule="evenodd" d="M498.693 437.561C498.693 470.489 531.422 497.184 571.795 497.184C612.168 497.184 644.897 470.489 644.897 437.561" fill="#89C5CC"/>
<path fill-rule="evenodd" clip-rule="evenodd" d="M577.662 437.751H573.8C574.068 433.798 574.422 429.853 575.232 425.944C578.331 410.995 588.02 389.039 609.269 386.613C610.053 386.522 612.937 386.507 616.43 386.674C618.086 385.92 619.94 385.463 621.894 385.358C639.987 384.27 660.191 396.175 668.918 408.564C675.953 418.552 674.768 431.668 670.423 442.28C667.513 449.385 661.162 459.514 650.571 459.613C637.321 459.736 636.682 446.379 636.426 438.571C636.085 428.189 634.477 419.146 624.448 412.07C622.11 410.421 619.555 408.971 617.194 407.345C613.497 404.801 609.411 402.196 608.935 397.986C608.277 392.179 612.296 391.134 618.433 392.213C619.479 392.397 630.017 396.253 628.457 393.205C627.98 392.274 626.241 391.536 624.045 390.983C618.362 390.479 611.586 389.894 609.637 390.243C588.612 394.006 580.426 417.759 578.252 432.851C578.018 434.48 577.828 436.114 577.662 437.751Z" fill="#69A1AC"/>
</g>
<g opacity="0.5">
<path fill-rule="evenodd" clip-rule="evenodd" d="M178.47 155.326C182.678 150.432 190.488 138.003 196.41 136.254C200.225 135.128 199.113 146.779 199.16 149.001C199.344 157.596 198.318 166.137 197.051 174.66C194.768 190.032 187.304 203.721 177.067 216.804C171.799 223.536 165.621 230.349 157.063 234.549C153.124 236.484 148.384 236.808 144.494 238.474C139.963 240.414 142.43 238.846 140.389 242.697C137.553 248.043 136.646 254.94 135.334 260.645C129.31 286.832 114.727 425.263 117.255 451.9C117.48 454.261 113.443 454.826 113.242 451.944C112.171 436.661 121.438 330.828 126.114 296.218C130.789 261.607 135.521 231.031 140.265 219.057C146.021 204.53 156.416 187.06 165.069 173.513C169.088 167.219 173.469 161.142 178.47 155.326Z" fill="#69A1AC"/>
<path fill-rule="evenodd" clip-rule="evenodd" d="M209.708 325.075C220.659 318.518 232.511 330.893 222.603 337.451C217.125 341.076 211.398 339.787 208.174 336.766C206.081 338.846 204.122 341.022 202.24 342.86C196.505 348.459 191.085 354.193 185.905 360.06C175.144 372.248 165.922 385.125 156.28 397.767C146.765 410.243 137.325 422.784 128.701 435.576C121.394 446.415 111.656 459.165 109.154 471.047C112.95 445.847 127.351 421.626 144.502 399.41C161.512 377.377 181.033 353.314 207.372 335.926C204.691 332.711 204.617 328.122 209.708 325.075Z" fill="#C1DEE2"/>
<path fill-rule="evenodd" clip-rule="evenodd" d="M1.91586 263.616C8.04363 264.593 18.0563 275.899 23.1075 280.207C29.1104 285.326 34.5565 290.782 39.6901 296.499C50.7417 308.804 60.6255 321.887 69.03 335.53C82.7316 357.771 93.7083 380.603 101.675 404.822C106.551 419.647 109.708 435.013 111.58 450.272C111.933 453.15 115.632 475.336 110.302 475.934C105.508 476.473 106.989 459.088 106.757 456.723C104.143 430.043 96.3113 404.084 85.4174 378.938C83.0445 373.46 80.8401 366.75 77.0454 361.82C74.3126 358.27 77.0258 359.508 72.2233 358.164C68.0997 357.01 63.4014 357.292 59.1786 355.879C50.0052 352.81 42.6599 346.854 36.2213 340.862C23.7088 329.218 13.7932 316.621 8.62464 301.701C5.75748 293.428 3.12271 285.107 1.66057 276.579C1.28234 274.374 -2.03099 262.986 1.91586 263.616Z" fill="#69A1AC"/>
<path fill-rule="evenodd" clip-rule="evenodd" d="M26.0985 75.5068C49.1806 108.156 68.1485 144.02 80.3962 180.345C87.8168 202.354 93.0063 224.939 98.1624 247.36C106.146 282.077 113.697 316.791 115.845 352.124C118.006 387.662 122.28 428.651 108.012 462.88C115.139 428.128 108.354 391.138 107.152 356.171C106.578 339.478 104.914 322.948 102.732 306.353C100.614 290.255 97.1544 274.233 93.9325 258.262C92.363 250.483 90.7147 242.716 89.0366 234.954C88.5356 232.638 88.3239 225.766 86.5227 224.183C84.7098 222.591 75.4602 221.942 72.5562 220.773C66.7086 218.419 61.2082 215.076 56.3401 211.544C47.0081 204.773 38.8896 195.925 32.4819 187.203C17.6561 167.022 11.7288 142.394 12.0284 119.022C12.0859 114.484 21.0335 65.6191 17.44 64.9462C17.6564 64.7396 17.861 64.5262 18.054 64.3042C20.7746 68.0194 23.4443 71.7598 26.0985 75.5068Z" fill="#89C5CC"/>
<path fill-rule="evenodd" clip-rule="evenodd" d="M275.23 193.259C275.586 192.84 277.904 189.926 276.737 190.112C279.114 189.733 273.468 193.326 279.39 191.121C276.578 193.287 278.201 196.101 278.238 199.015C278.3 203.748 277.329 208.442 276.236 213.073C274.509 220.393 271.937 227.51 268.203 234.319C260.064 249.156 246.245 263.44 229.839 272.716C221.74 277.296 213.802 278.856 204.565 280.964C198.731 282.296 198.268 284.758 195.171 289.376C188.723 298.994 182.39 308.577 176.704 318.52C169.914 330.392 163.323 342.277 157.106 354.359C136.16 395.054 119.112 437.215 110.159 480.848C109.94 455.135 117.233 428.654 126.432 404.145C133.133 386.289 141.857 369.076 151.161 352.038C153.416 347.91 156.833 342.6 157.79 338.043C158.461 334.85 156.411 331.779 155.472 328.415C151.814 315.317 152.076 300.642 155.289 287.473C158.831 272.952 169.076 266.213 186.406 264.156C192.743 263.403 200.799 263.679 206.611 261.475C212.942 259.075 215.554 251.185 219.155 246.121C228.825 232.517 240.315 219.47 253.509 208.008C257.162 204.833 261.091 201.905 265.259 199.191C267.887 197.478 273.439 195.369 275.23 193.259Z" fill="#89C5CC"/>
<path fill-rule="evenodd" clip-rule="evenodd" d="M80.9031 453.078H142.406C145.171 453.078 147.413 454.906 147.413 457.162C147.413 457.361 147.395 457.56 147.359 457.758L142.606 484.048C141.157 492.062 132.725 498 122.792 498H100.517C90.5844 498 82.1525 492.062 80.7033 484.048L75.9497 457.758C75.5463 455.526 77.437 453.451 80.1726 453.122C80.4145 453.093 80.6587 453.078 80.9031 453.078Z" fill="#C1DEE2"/>
</g>
<path fill-rule="evenodd" clip-rule="evenodd" d="M25.457 466.52C25.457 483.906 27.1393 498.001 49.7186 498.001C72.298 498.001 73.9803 483.906 73.9803 466.52" fill="#F2F2F2"/>
<path fill-rule="evenodd" clip-rule="evenodd" d="M56.4356 455.671C55.6079 456.838 54.87 458.029 54.2181 459.237C54.1951 456.748 54.3638 454.242 54.8245 451.7C55.6121 447.348 56.8149 443.017 57.9452 438.694C58.7575 435.587 58.7062 430.007 61.7891 427.531C62.6344 426.996 62.8379 428.045 62.8379 428.501C62.8486 428.597 62.8356 426.642 62.015 426.982C57.1376 429.037 55.5572 435.497 53.9957 438.732C51.7175 443.453 49.779 448.279 48.9808 453.191C48.7791 454.432 48.6694 455.672 48.644 456.911C48.4782 456.58 48.3225 456.246 48.1502 455.916C45.3352 450.531 41.5361 445.276 36.7979 440.43C35.6317 439.238 20.967 427.473 19.819 429.274C19.9323 429.535 20.1694 429.752 20.531 429.925C20.5523 429.944 20.5529 429.933 20.5405 429.904C21.4017 431.039 23.8505 432.792 24.6132 433.786C26.5328 436.288 28.0247 438.943 29.5408 441.548C32.744 447.052 35.7154 452.612 38.596 458.183C39.2667 459.481 39.9658 460.772 40.679 462.058C33.3269 453.409 23.519 445.557 10.0176 441.062C14.6289 442.975 17.6523 446.575 20.7664 449.331C24.5224 452.656 28.4784 455.891 32.2414 459.212C36.6799 463.13 41.9025 467.256 46.1717 471.591C50.307 478.672 54.3255 485.761 56.8061 493.204C55.7896 490.633 56.7264 487.078 56.5524 484.379C56.4144 482.231 56.1064 480.1 55.6846 477.973C56.2061 478.933 56.6556 479.893 56.8591 480.786C56.6733 479.288 56.4592 477.8 56.2291 476.319C56.8196 474.933 57.3995 473.64 57.7912 472.575C59.7987 467.109 62.189 461.738 65.4442 456.503C68.4563 451.66 71.9114 446.879 75.6762 442.244C77.4324 440.083 79.2128 437.93 80.9819 435.773C82.1399 434.361 83.2425 432.101 84.8547 430.748C74.4333 438.519 63.0474 446.346 56.4356 455.671Z" fill="#F2F2F2"/>
<path fill-rule="evenodd" clip-rule="evenodd" d="M688.592 100.916C685.604 92.7886 678.59 86.4272 671.309 80.5985C657.134 69.2515 649.51 62.2357 644.458 45.6371C641.488 35.8751 638.464 25.5303 629.04 18.4478C622.179 13.2902 610.37 8.95686 601.194 12.6501C587.077 19.5223 583.287 33.6251 584.71 46.2533C586.475 61.9051 595.439 71.5559 612.659 77.3209C622.363 80.5677 628.813 84.8518 634.08 92.3169C638.293 98.2862 640.75 105.761 646.044 111.172C653.96 119.262 663.865 122.858 676.074 121.514C664.639 104.353 651.277 87.0304 635.161 72.5814C633.653 71.1288 624.755 65.5688 626.55 63.0931C628.527 60.3672 637.661 70.6068 637.596 70.5449C642.28 74.9297 646.613 79.5891 650.869 84.2933C650.858 84.2979 650.846 84.3004 650.834 84.3052C655.215 89.1324 659.562 94.0306 663.826 98.9903C665.55 101.088 667.229 103.213 668.835 105.391C671.193 108.587 674.935 117.658 678.794 119.623C679.619 120.043 680.382 120.278 681.096 120.375C683.728 123.89 686.29 127.434 688.726 131.02C695.088 140.385 700.548 150.273 703.055 160.846C703.786 163.932 703.269 175.475 705.851 177.703C710.573 181.778 709.19 173.931 708.908 171.562C706.562 151.949 697.929 135.24 685.395 118.751C689.245 114.649 689.801 104.209 688.592 100.916Z" fill="#F2F2F2"/>
<path fill-rule="evenodd" clip-rule="evenodd" d="M526.859 110.393C531.838 105.609 543.804 104.797 551.123 105.117C560.18 105.513 569.482 107.312 578.098 109.486C592.291 113.067 606.083 119.602 618.583 125.928C620.089 126.69 638.649 135.793 637.006 137.391C635.378 138.974 617.159 128.16 613.099 126.297C604.434 122.319 596.488 117.614 586.937 114.987C577.048 112.267 566.589 111.189 556.19 111.264C554.855 111.273 550.502 110.514 550.408 112.125C550.316 113.7 557.519 112.878 558.79 112.888C564.036 112.927 569.314 113.33 574.486 114.071C584.176 115.46 593.286 118.259 601.586 122.552C599.27 126.943 593.719 128.968 587.895 127.869C582.862 126.919 577.956 124.576 573.027 123.899C569.633 123.432 566.235 123.71 562.943 124.49C554.261 126.547 549.254 130.763 539.708 127.831C532.225 125.532 519.71 117.272 526.859 110.393Z" fill="#F2F2F2"/>
<path fill-rule="evenodd" clip-rule="evenodd" d="M532.494 65.1205H534.849C534.684 62.6828 534.469 60.2491 533.964 57.8387C532.071 48.8036 526.151 35.5335 513.169 34.067C512.69 34.0124 510.928 34.0032 508.794 34.1041C507.782 33.6481 506.649 33.3724 505.455 33.309C494.402 32.6514 482.058 39.8466 476.726 47.3342C472.428 53.3712 473.152 61.2986 475.807 67.7123C477.585 72.0062 481.465 78.1283 487.935 78.188C496.03 78.2627 496.421 70.1897 496.577 65.4702C496.785 59.1959 497.768 53.73 503.895 49.4532C505.324 48.4569 506.885 47.5804 508.327 46.5979C510.586 45.06 513.082 43.4855 513.373 40.9413C513.775 37.4314 511.319 36.7997 507.57 37.4518C506.931 37.5628 500.493 39.8937 501.446 38.0514C501.737 37.4885 502.8 37.0425 504.142 36.7084C507.613 36.4038 511.753 36.0504 512.944 36.2615C525.789 38.5353 530.79 52.8919 532.118 62.0133C532.269 63.0461 532.389 64.0825 532.494 65.1205Z" fill="#F2F2F2"/>
</g>
</svg>
