<svg width="1026" height="531" viewBox="0 0 1026 531" fill="none" xmlns="http://www.w3.org/2000/svg">
<path d="M437.877 0.704742C427.661 3.17065 419.03 8.63089 408.814 18.8468C380.104 47.5572 350.689 110.086 335.189 175.256C327.087 209.427 325.149 224.751 325.325 256.279C325.325 287.808 327.439 299.785 336.246 317.575C345.229 336.069 371.121 354.916 391.553 357.558C397.541 358.439 398.422 358.263 395.956 356.677C390.496 353.155 385.916 341.706 385.916 331.49C385.916 321.45 392.433 299.257 398.598 288.16C408.286 270.723 420.439 252.228 429.598 240.956C440.519 227.569 486.843 178.427 527.707 136.859C550.78 113.432 552.894 111.847 559.059 111.847C568.57 111.847 575.968 116.251 579.139 123.648C583.542 134.393 581.076 140.381 565.4 156.586C555.888 166.626 551.485 172.614 551.485 175.433C551.485 177.722 553.599 191.109 556.065 205.2C567.337 269.842 567.337 264.382 555.536 277.592C545.144 289.041 544.44 288.512 526.65 251.876C515.377 228.978 509.741 219.291 507.803 219.291C502.167 219.291 480.502 258.041 472.223 282.7C464.297 305.95 463.945 326.91 471.167 337.831C486.667 361.257 537.042 354.388 607.849 318.808C647.127 299.081 683.059 269.666 695.037 247.473C699.616 239.018 700.321 236.024 700.321 223.694C700.145 197.626 685.173 168.563 652.588 131.046C606.616 78.0288 528.763 22.5457 478.036 6.34113C461.303 0.880859 445.803 -1.23279 437.877 0.704742ZM466.059 137.211C498.996 141.438 503.928 142.143 503.928 143.376C503.928 143.904 495.826 153.063 485.786 163.455L467.82 182.478L453.553 176.313C402.121 154.472 403.178 155.529 417.621 141.438C428.189 131.398 423.786 131.751 466.059 137.211Z" fill="#7224BE"/>
<path d="M0.528411 449.502L1.05682 459.718L12.1534 460.246L23.0739 460.775V495.122V529.468L33.2899 528.94L43.3297 528.411L43.8581 494.417L44.2104 460.599H53.5456C66.0514 460.599 67.4604 459.366 66.7559 448.974L66.2275 440.343L33.1137 439.815L0 439.462L0.528411 449.502Z" fill="#7224BE"/>
<path d="M95.9946 441.751C95.6423 442.984 95.4662 462.888 95.6423 486.138L96.1708 528.411H124.353H152.535V519.604V510.797L139.324 510.269C119.069 509.74 118.188 509.212 118.188 501.109V494.064H133.16H148.307L147.779 483.848L147.25 473.808L132.807 473.28L118.188 472.751V466.763V460.774L134.569 460.246L150.773 459.717L151.302 449.501L151.83 439.461H124.353C103.745 439.461 96.6992 439.99 95.9946 441.751Z" fill="#7224BE"/>
<path d="M187.234 483.849L187.763 528.411L197.978 528.94L208.018 529.468V516.434C208.018 494.417 215.768 493.889 227.922 515.201L235.496 528.411L247.297 528.94C253.814 529.292 259.098 528.94 259.098 528.235C259.098 527.707 255.399 520.133 250.82 511.678L242.541 496.355L247.297 490.718C254.342 482.264 256.632 472.576 253.99 462.712C251.524 453.201 246.768 447.565 237.609 442.809C232.149 439.991 227.217 439.462 208.899 439.462H186.882L187.234 483.849ZM231.092 462.36C235.496 464.826 235.496 473.104 231.092 477.156C228.626 479.445 225.28 479.974 218.41 479.622L208.899 479.093L208.371 472.224C207.49 461.832 208.547 460.599 218.586 460.599C223.518 460.599 229.155 461.479 231.092 462.36Z" fill="#7224BE"/>
<path d="M291.506 441.752C291.154 442.985 290.978 462.888 291.154 486.138L291.682 528.411L312.819 528.94C338.359 529.644 343.643 528.763 350.688 522.775C361.433 513.792 364.075 499.877 357.205 487.9C353.507 481.383 353.33 480.326 355.62 474.337C360.2 462.536 354.211 448.445 341.705 442.104C335.188 438.581 292.915 438.229 291.506 441.752ZM336.774 463.417C340.12 467.468 336.774 471.695 328.495 473.456C316.694 475.922 310.353 472.047 312.819 463.945C313.7 461.127 315.813 460.598 324.092 460.598C331.313 460.598 335.012 461.479 336.774 463.417ZM339.239 501.11V507.275H326.029C313.523 507.275 312.819 507.099 312.29 503.224C311.058 494.945 312.643 493.888 326.381 494.417L339.239 494.945V501.11Z" fill="#7224BE"/>
<path d="M406.348 461.832C401.769 474.161 394.371 493.712 390.144 505.337C385.916 516.786 382.394 526.826 382.394 527.883C382.394 528.764 387.325 529.292 393.138 528.94C404.587 528.411 405.467 527.707 408.814 518.195C410.399 513.44 410.752 513.44 425.371 513.44C441.223 513.44 441.752 513.792 444.922 523.127C446.684 528.235 447.212 528.411 457.78 528.94C465.882 529.292 468.701 528.94 468.701 527.178C468.701 525.769 462.712 508.508 455.314 488.781C448.093 468.877 441.047 449.854 439.814 446.508C437.524 440.343 437.348 440.343 426.076 439.814L414.627 439.286L406.348 461.832ZM431.007 484.729C433.826 492.832 433.121 494.065 425.195 494.065C419.382 494.065 419.03 493.712 419.911 489.133C420.439 486.491 421.848 482.087 422.905 479.269C425.195 473.104 427.661 474.69 431.007 484.729Z" fill="#7224BE"/>
<path d="M501.11 441.752C500.758 442.985 500.581 462.888 500.758 486.139L501.286 528.411L511.502 528.94L521.542 529.468V505.514C521.542 492.48 522.246 481.735 523.127 481.735C524.008 481.735 531.582 492.48 540.036 505.514L555.36 529.292H563.991H572.621V484.377V439.286L562.582 439.815L552.366 440.343L551.837 460.951C551.661 472.4 550.78 481.735 550.076 481.735C549.371 481.735 543.735 473.633 537.57 463.593C522.07 438.934 522.599 439.462 511.502 439.462C505.513 439.462 501.814 440.343 501.11 441.752Z" fill="#7224BE"/>
<path d="M633.389 443.161C624.23 447.564 615.599 456.195 610.844 465.002C606.264 473.633 605.912 493.536 609.963 503.048C620.179 526.65 648.889 537.57 672.139 526.65C687.992 519.076 696.975 506.394 698.032 489.661L698.56 480.854L673.549 480.326L648.361 479.798V489.661V499.349H658.929C670.378 499.349 671.611 500.406 665.798 505.69C660.867 510.093 645.719 510.093 639.026 505.69C633.389 501.815 627.224 490.894 627.224 484.906C627.401 478.741 632.685 469.229 638.321 465.178C645.367 459.894 659.634 460.07 667.031 465.354L672.668 469.405L679.889 464.121C683.764 461.127 687.111 457.604 687.111 456.195C687.111 453.553 679.009 446.86 670.026 442.28C661.923 438.229 642.372 438.582 633.389 443.161Z" fill="#7224BE"/>
<path d="M757.388 444.218C756.331 447.036 753.689 454.258 751.4 460.599C749.11 466.94 742.945 484.025 737.485 498.644C732.025 513.44 727.621 526.298 727.621 527.354C727.621 528.587 731.672 529.292 738.189 529.292H748.581L752.104 521.366L755.627 513.44H770.775H785.922L789.269 521.366L792.616 529.292H803.36C810.758 529.292 813.928 528.587 813.928 527.002C813.928 525.769 811.462 518.548 808.468 510.798C805.474 503.048 800.013 488.428 796.314 478.212C792.616 467.996 787.86 455.138 785.746 449.502L782.047 439.462H770.599C759.854 439.462 759.15 439.638 757.388 444.218ZM774.297 481.03C778.525 491.246 777.82 494.065 771.127 494.065C767.78 494.065 764.786 493.536 764.258 493.008C762.848 491.775 768.485 474.69 770.246 474.69C770.951 474.69 772.888 477.508 774.297 481.03Z" fill="#7224BE"/>
<path d="M885.617 440.695C884.912 441.223 884.384 456.371 884.384 473.985C884.384 500.934 883.856 506.57 881.566 508.86C878.043 512.383 867.827 512.559 865.009 509.036C862.015 505.513 859.196 505.689 850.918 509.917C842.992 513.968 842.816 514.496 846.691 520.133C853.384 529.82 873.287 534.047 886.321 528.587C892.662 525.945 900.236 518.724 903.583 512.206C904.816 509.741 905.52 496.002 905.52 473.985V439.462H896.185C890.901 439.462 886.145 439.99 885.617 440.695Z" fill="#7224BE"/>
<path d="M968.753 444.218C967.696 447.036 963.293 458.661 958.889 470.286C954.662 481.911 948.145 499.525 944.446 509.389C940.747 519.252 938.105 527.883 938.634 528.411C939.162 528.94 944.094 529.292 949.73 529.292H959.946L963.469 521.366L966.992 513.44H981.787H996.583L999.929 520.837L1003.28 528.411L1014.37 528.94C1020.54 529.292 1025.29 528.764 1025.29 527.707C1025.29 526.826 1022.12 517.843 1018.42 507.803C1014.55 497.94 1007.33 478.388 1002.22 464.474L993.06 439.462H981.787C971.219 439.462 970.515 439.814 968.753 444.218ZM987.776 489.133C988.833 494.241 988.657 494.241 981.963 493.712C974.037 493.184 973.685 491.07 978.793 479.093L981.787 472.047L984.253 478.036C985.662 481.207 987.248 486.138 987.776 489.133Z" fill="#7224BE"/>
</svg>
