<svg width="24" height="24" viewBox="0 0 24 24" fill="none" xmlns="http://www.w3.org/2000/svg">
<path d="M20.5 18.9999H3.5C2.95 18.9999 2.5 19.4499 2.5 19.9999C2.5 20.5499 2.95 20.9999 3.5 20.9999H20.5C21.05 20.9999 21.5 20.5499 21.5 19.9999C21.5 19.4499 21.05 18.9999 20.5 18.9999ZM3.51 11.6099L19.34 15.8499C20.14 16.0599 20.96 15.5899 21.18 14.7899C21.39 13.9899 20.92 13.1699 20.12 12.9499L14.81 11.5299L12.23 3.07993C12.1771 2.90465 12.0805 2.7457 11.9493 2.61801C11.8181 2.49031 11.6566 2.39806 11.48 2.34993C10.8 2.16993 10.13 2.67993 10.13 3.38993V10.2699L5.15 8.94993L4.4 7.08993C4.34226 6.94602 4.25157 6.81768 4.1352 6.71521C4.01884 6.61274 3.88005 6.539 3.73 6.49993L3.4 6.40993C3.32606 6.38896 3.24826 6.38551 3.17276 6.39982C3.09726 6.41414 3.02612 6.44584 2.96499 6.49242C2.90387 6.53899 2.85442 6.59916 2.82058 6.66815C2.78673 6.73715 2.76941 6.81308 2.77 6.88993V10.6399C2.77 11.0999 3.07 11.4899 3.51 11.6099Z" fill="#8A8A8A"/>
</svg>
