<svg width="30" height="30" viewBox="0 0 30 30" fill="none" xmlns="http://www.w3.org/2000/svg">
<path d="M15 0.375C12.1075 0.375 9.27986 1.23274 6.87479 2.83976C4.46972 4.44677 2.5952 6.73089 1.48827 9.40325C0.381337 12.0756 0.091713 15.0162 0.656022 17.8532C1.22033 20.6902 2.61323 23.2961 4.65857 25.3414C6.70391 27.3868 9.30984 28.7797 12.1468 29.344C14.9838 29.9083 17.9244 29.6187 20.5968 28.5117C23.2691 27.4048 25.5532 25.5303 27.1602 23.1252C28.7673 20.7201 29.625 17.8926 29.625 15C29.6213 11.1224 28.0792 7.40459 25.3373 4.66268C22.5954 1.92076 18.8777 0.378723 15 0.375ZM15 27.375C12.5525 27.375 10.1599 26.6492 8.12482 25.2894C6.08977 23.9297 4.50363 21.9969 3.567 19.7357C2.63036 17.4745 2.3853 14.9863 2.86279 12.5858C3.34028 10.1852 4.51889 7.98023 6.24956 6.24955C7.98024 4.51888 10.1852 3.34027 12.5858 2.86278C14.9863 2.38529 17.4745 2.63036 19.7357 3.56699C21.997 4.50363 23.9297 6.08976 25.2894 8.12482C26.6492 10.1599 27.375 12.5525 27.375 15C27.3713 18.2809 26.0663 21.4264 23.7463 23.7463C21.4264 26.0663 18.2809 27.3713 15 27.375ZM20.3016 18.6984C20.5128 18.9117 20.6313 19.1998 20.6313 19.5C20.6313 19.8002 20.5128 20.0883 20.3016 20.3016C20.0865 20.5095 19.7991 20.6257 19.5 20.6257C19.2009 20.6257 18.9135 20.5095 18.6984 20.3016L15 16.5891L11.3016 20.3016C11.0865 20.5095 10.7991 20.6257 10.5 20.6257C10.2009 20.6257 9.91348 20.5095 9.69844 20.3016C9.48719 20.0883 9.36868 19.8002 9.36868 19.5C9.36868 19.1998 9.48719 18.9117 9.69844 18.6984L13.4109 15L9.69844 11.3016C9.51905 11.083 9.42737 10.8055 9.44124 10.5231C9.45511 10.2406 9.57354 9.97344 9.77349 9.77349C9.97344 9.57354 10.2406 9.45511 10.5231 9.44123C10.8055 9.42736 11.083 9.51904 11.3016 9.69844L15 13.4109L18.6984 9.69844C18.917 9.51904 19.1945 9.42736 19.477 9.44123C19.7594 9.45511 20.0266 9.57354 20.2265 9.77349C20.4265 9.97344 20.5449 10.2406 20.5588 10.5231C20.5726 10.8055 20.481 11.083 20.3016 11.3016L16.5891 15L20.3016 18.6984Z" fill="white"/>
</svg>
