<svg width="12" height="8" viewBox="0 0 12 8" fill="none" xmlns="http://www.w3.org/2000/svg">
<path d="M6.4251 7.27461C6.29176 7.27461 6.16243 7.24961 6.0371 7.19961C5.91176 7.14961 5.80776 7.08294 5.7251 6.99961L1.1251 2.39961C0.941764 2.21628 0.850098 1.98294 0.850098 1.69961C0.850098 1.41628 0.941764 1.18294 1.1251 0.999609C1.30843 0.816276 1.54176 0.724609 1.8251 0.724609C2.10843 0.724609 2.34176 0.816276 2.5251 0.999609L6.4251 4.89961L10.3251 0.999609C10.5084 0.816276 10.7418 0.724609 11.0251 0.724609C11.3084 0.724609 11.5418 0.816276 11.7251 0.999609C11.9084 1.18294 12.0001 1.41628 12.0001 1.69961C12.0001 1.98294 11.9084 2.21628 11.7251 2.39961L7.1251 6.99961C7.0251 7.09961 6.91676 7.17061 6.8001 7.21261C6.68343 7.25461 6.55843 7.27528 6.4251 7.27461Z" fill="white"/>
</svg>
