<svg width="86" height="32" viewBox="0 0 86 32" fill="none" xmlns="http://www.w3.org/2000/svg">
<rect x="0.5" y="0.5" width="85" height="31" rx="15.5" fill="white"/>
<rect x="0.5" y="0.5" width="85" height="31" rx="15.5" stroke="#7126B5"/>
<g clip-path="url(#clip0_162_15101)">
<path fill-rule="evenodd" clip-rule="evenodd" d="M9.66675 8.49935C9.66675 8.03911 10.0398 7.66602 10.5001 7.66602H25.5001C25.9603 7.66602 26.3334 8.03911 26.3334 8.49935V10.6542C26.3334 11.0962 26.1578 11.5201 25.8453 11.8327L20.5001 17.1779V21.8327C20.5001 22.1483 20.3217 22.4369 20.0394 22.578L16.7061 24.2447C16.4478 24.3739 16.141 24.3601 15.8953 24.2082C15.6496 24.0564 15.5001 23.7882 15.5001 23.4994V17.1779L10.1549 11.8327C9.84234 11.5201 9.66675 11.0962 9.66675 10.6542V8.49935ZM11.3334 9.33268V10.6542L16.9227 16.2434C17.079 16.3997 17.1667 16.6117 17.1667 16.8327V22.151L18.8334 21.3177V16.8327C18.8334 16.6117 18.9212 16.3997 19.0775 16.2434L24.6667 10.6542V9.33268H11.3334Z" fill="#8A8A8A"/>
</g>
<path d="M37.4247 22V10.3636H44.402V11.6136H38.8338V15.5455H43.8793V16.7955H38.8338V22H37.4247ZM46.6335 22V13.2727H47.9744V22H46.6335ZM47.3153 11.8182C47.054 11.8182 46.8286 11.7292 46.6392 11.5511C46.4536 11.3731 46.3608 11.1591 46.3608 10.9091C46.3608 10.6591 46.4536 10.4451 46.6392 10.267C46.8286 10.089 47.054 10 47.3153 10C47.5767 10 47.8002 10.089 47.9858 10.267C48.1752 10.4451 48.2699 10.6591 48.2699 10.9091C48.2699 11.1591 48.1752 11.3731 47.9858 11.5511C47.8002 11.7292 47.5767 11.8182 47.3153 11.8182ZM51.7713 10.3636V22H50.4304V10.3636H51.7713ZM58.0227 13.2727V14.4091H53.5V13.2727H58.0227ZM54.8182 11.1818H56.1591V19.5C56.1591 19.8788 56.214 20.1629 56.3239 20.3523C56.4375 20.5379 56.5814 20.6629 56.7557 20.7273C56.9337 20.7879 57.1212 20.8182 57.3182 20.8182C57.4659 20.8182 57.5871 20.8106 57.6818 20.7955C57.7765 20.7765 57.8523 20.7614 57.9091 20.75L58.1818 21.9545C58.0909 21.9886 57.964 22.0227 57.8011 22.0568C57.6383 22.0947 57.4318 22.1136 57.1818 22.1136C56.803 22.1136 56.4318 22.0322 56.0682 21.8693C55.7083 21.7064 55.4091 21.4583 55.1705 21.125C54.9356 20.7917 54.8182 20.3712 54.8182 19.8636V11.1818ZM63.6051 22.1818C62.7642 22.1818 62.0388 21.9962 61.429 21.625C60.8229 21.25 60.3551 20.7273 60.0256 20.0568C59.6998 19.3826 59.5369 18.5985 59.5369 17.7045C59.5369 16.8106 59.6998 16.0227 60.0256 15.3409C60.3551 14.6553 60.8134 14.1212 61.4006 13.7386C61.9915 13.3523 62.6809 13.1591 63.4688 13.1591C63.9233 13.1591 64.3722 13.2348 64.8153 13.3864C65.2585 13.5379 65.6619 13.7841 66.0256 14.125C66.3892 14.4621 66.679 14.9091 66.8949 15.4659C67.1108 16.0227 67.2188 16.7083 67.2188 17.5227V18.0909H60.4915V16.9318H65.8551C65.8551 16.4394 65.7566 16 65.5597 15.6136C65.3665 15.2273 65.09 14.9223 64.7301 14.6989C64.3741 14.4754 63.9536 14.3636 63.4688 14.3636C62.9347 14.3636 62.4725 14.4962 62.0824 14.7614C61.696 15.0227 61.3987 15.3636 61.1903 15.7841C60.982 16.2045 60.8778 16.6553 60.8778 17.1364V17.9091C60.8778 18.5682 60.9915 19.1269 61.2188 19.5852C61.4498 20.0398 61.7699 20.3864 62.179 20.625C62.5881 20.8598 63.0634 20.9773 63.6051 20.9773C63.9574 20.9773 64.2756 20.928 64.5597 20.8295C64.8475 20.7273 65.0956 20.5758 65.304 20.375C65.5123 20.1705 65.6733 19.9167 65.7869 19.6136L67.0824 19.9773C66.946 20.4167 66.7169 20.803 66.3949 21.1364C66.0729 21.4659 65.6752 21.7235 65.2017 21.9091C64.7282 22.0909 64.196 22.1818 63.6051 22.1818ZM69.2585 22V13.2727H70.554V14.5909H70.6449C70.804 14.1591 71.0919 13.8087 71.5085 13.5398C71.9252 13.2708 72.3949 13.1364 72.9176 13.1364C73.0161 13.1364 73.1392 13.1383 73.2869 13.142C73.4347 13.1458 73.5464 13.1515 73.6222 13.1591V14.5227C73.5767 14.5114 73.4725 14.4943 73.3097 14.4716C73.1506 14.4451 72.982 14.4318 72.804 14.4318C72.3797 14.4318 72.0009 14.5208 71.6676 14.6989C71.3381 14.8731 71.0767 15.1155 70.8835 15.4261C70.6941 15.733 70.5994 16.0833 70.5994 16.4773V22H69.2585Z" fill="#151515"/>
<defs>
<clipPath id="clip0_162_15101">
<rect width="16.6667" height="16.6667" fill="white" transform="translate(9.66675 7.66602)"/>
</clipPath>
</defs>
</svg>
