<svg width="190" height="178" viewBox="0 0 190 178" fill="none" xmlns="http://www.w3.org/2000/svg">
<path d="M57.0306 0.539204C51.8546 1.76039 47.4818 4.46444 42.3058 9.52364C27.7595 23.7417 12.8562 54.7075 5.00295 86.9817C0.897849 103.904 -0.0838039 111.493 0.00543734 127.106C0.00543734 142.72 1.07633 148.652 5.53839 157.462C10.0897 166.621 23.2082 175.954 33.5601 177.262C36.5943 177.698 37.0405 177.611 35.7912 176.826C33.0247 175.082 30.7044 169.412 30.7044 164.353C30.7044 159.381 34.0063 148.39 37.1298 142.895C42.0381 134.259 48.1957 125.1 52.8362 119.518C58.3692 112.888 81.8396 88.5519 102.544 67.9661C114.234 56.3649 115.305 55.5798 118.429 55.5798C123.248 55.5798 126.996 57.7605 128.602 61.4241C130.833 66.7449 129.584 69.7107 121.641 77.7356C116.822 82.7076 114.591 85.6733 114.591 87.069C114.591 88.2029 115.662 94.8322 116.911 101.81C122.623 133.823 122.623 131.119 116.644 137.661C111.378 143.331 111.022 143.069 102.008 124.926C96.2967 113.586 93.441 108.789 92.4593 108.789C89.6036 108.789 78.627 127.979 74.4326 140.191C70.4168 151.705 70.2383 162.085 73.8972 167.493C81.7504 179.094 107.273 175.692 143.148 158.072C163.049 148.303 181.254 133.736 187.323 122.745C189.643 118.558 190 117.075 190 110.969C189.911 98.0597 182.325 83.6671 165.816 65.0876C142.524 38.8321 103.079 11.3554 77.3776 3.33049C68.8997 0.62643 61.0464 -0.4203 57.0306 0.539204ZM71.3092 68.1406C87.9973 70.234 90.496 70.583 90.496 71.1936C90.496 71.4552 86.3909 75.9911 81.3042 81.1375L72.2016 90.5581L64.973 87.5051C38.9146 76.6889 39.4501 77.2123 46.7678 70.234C52.1223 65.2621 49.8913 65.4365 71.3092 68.1406Z" fill="#7224BE"/>
</svg>
