<svg width="28" height="28" viewBox="0 0 28 28" fill="none" xmlns="http://www.w3.org/2000/svg">
<g filter="url(#filter0_d_135_5313)">
<g clip-path="url(#clip0_135_5313)">
<path fill-rule="evenodd" clip-rule="evenodd" d="M14 24C19.5228 24 24 19.5228 24 14C24 8.47715 19.5228 4 14 4C8.47715 4 4 8.47715 4 14C4 19.5228 8.47715 24 14 24ZM18.8839 12.8839C19.372 12.3957 19.372 11.6043 18.8839 11.1161C18.3957 10.628 17.6043 10.628 17.1161 11.1161L13 15.2322L10.8839 13.1161C10.3957 12.628 9.60427 12.628 9.11612 13.1161C8.62796 13.6043 8.62796 14.3957 9.11612 14.8839L12.1161 17.8839C12.6043 18.372 13.3957 18.372 13.8839 17.8839L18.8839 12.8839Z" fill="#73CA5C"/>
<path fill-rule="evenodd" clip-rule="evenodd" d="M14 24C19.5228 24 24 19.5228 24 14C24 8.47715 19.5228 4 14 4C8.47715 4 4 8.47715 4 14C4 19.5228 8.47715 24 14 24ZM18.8839 12.8839C19.372 12.3957 19.372 11.6043 18.8839 11.1161C18.3957 10.628 17.6043 10.628 17.1161 11.1161L13 15.2322L10.8839 13.1161C10.3957 12.628 9.60427 12.628 9.11612 13.1161C8.62796 13.6043 8.62796 14.3957 9.11612 14.8839L12.1161 17.8839C12.6043 18.372 13.3957 18.372 13.8839 17.8839L18.8839 12.8839Z" fill="#73CA5C"/>
</g>
</g>
<defs>
<filter id="filter0_d_135_5313" x="-2" y="-2" width="32" height="32" filterUnits="userSpaceOnUse" color-interpolation-filters="sRGB">
<feFlood flood-opacity="0" result="BackgroundImageFix"/>
<feColorMatrix in="SourceAlpha" type="matrix" values="0 0 0 0 0 0 0 0 0 0 0 0 0 0 0 0 0 0 127 0" result="hardAlpha"/>
<feOffset/>
<feGaussianBlur stdDeviation="2"/>
<feComposite in2="hardAlpha" operator="out"/>
<feColorMatrix type="matrix" values="0 0 0 0 0 0 0 0 0 0 0 0 0 0 0 0 0 0 0.15 0"/>
<feBlend mode="normal" in2="BackgroundImageFix" result="effect1_dropShadow_135_5313"/>
<feBlend mode="normal" in="SourceGraphic" in2="effect1_dropShadow_135_5313" result="shape"/>
</filter>
<clipPath id="clip0_135_5313">
<rect width="20" height="20" fill="white" transform="translate(4 4)"/>
</clipPath>
</defs>
</svg>
